<svg version="1.1" id="pslogo" xmlns="http://www.w3.org/2000/svg" xmlns:xlink="http://www.w3.org/1999/xlink" x="0px" y="0px" viewBox="0 0 792 612"
	 style="enable-background:new 0 0 792 612;" xml:space="preserve">
<style type="text/css">
	.st0{fill:none;stroke:#000000;stroke-width:6;stroke-miterlimit:10;}
	.st1{fill:none;stroke:#000000;stroke-width:6;stroke-miterlimit:10;}
	#pslogo.clickit .st1{
		fill: #8b4513;
	}
</style>
<script type="text/javascript">
	var clicker = document.querySelector('#pslogo');
	clicker.addEventListener('click', function(){
	 this.classList.toggle('clickit');
	});
</script>
<g>
	<path class="st1" d="M454.9,138.7c0,0,91.8,6.2,112.4,86.6C567.2,225.3,483.7,256.2,454.9,138.7z"/>
	<path class="st1" d="M445.6,160.4c0,0-28.9-61.9-91.8-27.8c0,0-10.3,5.2,12.4,17.5c0,0,39.2,30.9,50.5,26.8
		C416.8,176.8,443.1,175.3,445.6,160.4z"/>
	<path class="st1" d="M453.9,177.2c0,0,24.7,56.3,56.2,64.6c0,0-4.6,37.2,7.7,47.5c0,0-69.3,0-119.2-100
		C398.6,189.2,448.4,198,453.9,177.2z"/>
	<path class="st1" d="M527.1,245.2c0,0-16.5,17.5,10.3,40.2c0,0,11.3,41.2,27.8,45.4c16.5,4.1,21.6-57.7,21.6-57.7
		S569.4,227.6,527.1,245.2z"/>
	<path class="st1" d="M388.8,183.8c0,0-58.6-59.6-88.5-25.6c0,0,24.3,13,25.6,25.6C325.8,183.8,376.3,222.8,388.8,183.8z"/>
	<path class="st1" d="M391.8,204.7l29,53.6c0,0-22.2,24.7-65.2,0c0,0-40.7-25.8-20.3-46.4C335.2,211.9,381,220.1,391.8,204.7z"/>
	<path class="st1" d="M446.6,279.9c0,0,43.7,20.1,72.2,26.1c0,0-10.3,66.7-36.1,59.5C482.7,365.5,394.1,313.9,446.6,279.9z"/>
	<path class="st1" d="M414.6,282c0,0-52.7,6.3-69.1-7.1c0,0-24.7,11.3,20.7,60.8s76.3,18.6,76.3,18.6S410.5,309.8,414.6,282z"/>
	<path class="st1" d="M317.8,201.1c0,0-26.8-20.2-53.6,22.1c0,0-0.8,16.3,30.9,11c0,0,7.2,11.6,22.7,14.7
		C317.8,249,310.8,208.1,317.8,201.1z"/>
	<path class="st1" d="M535.1,322c0,0,50.7,41.4,1.2,75.5c0,0-35.1,3.1-44.3-11.3c0,0-9.3-8.7,19.1-17.3
		C511.1,368.8,526.5,303.8,535.1,322z"/>
	<path class="st1" d="M316.8,270.3c0,0-22.7-43.1-75.3,16.7c0,0-8.2,29,49.5,24.8c0,0,18.4,22.2,35.5,11.1
		C343.6,311.9,316.8,270.3,316.8,270.3z"/>
	<path class="st1" d="M456.2,371.8c0,0,25.6-8.2,21.5,14.4V410c0,0-4.1,25.8-25.8,18.6C451.9,428.5,432.7,383.2,456.2,371.8z"/>
	<path class="st1" d="M354.5,345.4c0,0-42-22.8-61.6,22c-19.6,44.8,23.6,59.2,53.6,42.7C346.5,410.1,377.2,368.1,354.5,345.4z"/>
	<path class="st1" d="M372.1,390.3c0,0,40.1-26.4,57.8-7.2c0,0,14.6,11.8-7,48.7c0,0-22.2,21.9-33.3,0
		C389.6,431.8,386.9,390.3,372.1,390.3z"/>
	<path class="st1" d="M367.9,410.1c0,0-28.7,35.1-55.5,29.9c0,0-11.3,11.3,12.4,18.6c0,0,17.5,20.6,8.7,26.8
		C333.5,485.4,383.3,479.8,367.9,410.1z"/>
	<path class="st1" d="M417.8,453.1c0,0-25.8-3.1-35.1,4.6L372.1,482l31.3-8.2C403.5,473.7,443.5,459.3,417.8,453.1z"/>
	<path class="st1" d="M291,331.9c0,0-87.6,15-72.2,59.3c0,0,25.8-15.7,45.4,13.8c0,0,6.2,2.2,14.4-7.4c0,0-11.3-37.2,7.4-39.5
		C286,358.2,310.9,327.1,291,331.9z"/>
	<path class="st1" d="M294,418.7h-33.1c0,0-18.4,28.9-4,42.6c14.4,13.7,32.8-9.5,32.8-9.5L294,418.7z"/>
	<path class="st1" d="M233.3,400.3c0,0-26.6,9.7-27.9,20.4s21.6,10.7,21.6,10.7l13,9.1C240.1,440.5,257,400.3,233.3,400.3z"/>
	<path class="st1" d="M243.1,456.7c0,0-35.7,8.8-27.4,24.2C215.6,481,243.1,499.5,243.1,456.7z"/>
	<path class="st1" d="M258.8,480.8l-7.5,21.7C251.3,502.6,213.8,499.9,258.8,480.8z"/>
	<path class="st1" d="M279.6,476c0,0,33.7-22.9,37.8,4l-15.6,15.6l-3.3,10.3C298.5,505.9,279.6,514.1,279.6,476z"/>
	<path class="st0" d="M536.3,158.6c-7.2-4.7-15.2-9.4-24.1-13.9c-25.7-13-50-19.6-69.7-23.2c-8.3-4.1-23.1-10.1-42.3-10.3
		c-30.6-0.4-52.4,14-60,19.6c-7.9,0.6-19.5,2.3-32.6,7.9c-12.3,5.2-21.3,11.9-27.1,16.9c0.8,3,2.4,7.2,5.6,11.7
		c4.3,5.9,9.3,9.3,12.3,11c0,0-58.5,30.6-52.6,56c1.9,2.2,4.7,5.1,8.8,7.7c5.3,3.4,10.3,4.7,13.5,5.4c-6.5,5.5-13.2,11.7-20,18.4
		c-8.5,8.4-16,16.7-22.6,24.5c0,4.2,0.8,9.1,3.1,13.9c9.2,18.9,34.8,20.4,36.4,20.5c-33.6,11.3-57.1,32.6-58.1,55.5
		c-0.2,4.1,0.3,9,2.4,14.6c-1.7,3.1-3.5,6.3-5.3,9.4c-3.4,5.9-6.8,11.6-10.2,17.2c0.3,2.7,1.7,10.6,8.2,17.7
		c6.3,6.8,13.8,8.7,16.5,9.3c-2.2,1.6-4.8,3.9-7.2,7.2c-5.7,7.9-6.2,16.4-6.2,20c0,0,0.3,21.4,20.3,20.3c0,0,6.2,21.1,20.3,20.3
		c0,0,21.8-0.1,23.4-12.6c0,0,15.5,18,30.9,18c15.5,0,17.2-24.7,17.2-24.7s35.4-3.6,40.5-9c0,0,22.7,20,76.8-19.5
		c0.3-3.2,0.9-7.3,2.4-11.8c1.6-4.7,3.6-8.4,5.3-11.1c5.2-0.6,10.8-1.5,16.8-3c12.5-3,23-7.3,31.2-11.5c0.5-9.3,1-18.5,1.5-27.8
		c5.2,2.8,13.8,6.4,24.7,7.2c20.8,1.5,36.1-8,41.3-11.5c3.2-4.1,8.8-12.5,11.3-24.6c2.5-12.5,0.4-22.8-1-27.8
		c6.3-5.6,17.5-17,24.7-35.1c8.1-20.1,7.2-37.9,6.2-46.4c-7.9-8.9-15.8-17.9-23.7-26.8c1-6.9,1.4-15.6-0.5-25.4
		C568.8,180.8,543.3,163.1,536.3,158.6z"/>
</g>
</svg>
