<svg version="1.1" id="storelocator" xmlns="http://www.w3.org/2000/svg" xmlns:xlink="http://www.w3.org/1999/xlink" x="0px"
	 y="0px" viewBox="0 0 300 300" style="enable-background:new 0 0 300 300;" xml:space="preserve">
<style type="text/css">
	.st0{fill:none;stroke:#000000;stroke-width:6;stroke-miterlimit:10;}
	.st1{fill:none;stroke:#000000;stroke-width:6;stroke-miterlimit:10;}
	.st2{fill:none;stroke:#000000;stroke-width:6;stroke-miterlimit:10;}
	.st3{fill:none;stroke:#000000;stroke-width:6;stroke-miterlimit:10;}
	#storelocator.clickit .st1{
		fill: #e74c3c;
	}
	
	#storelocator.clickit .st2{
		fill: #84817a;
	}
	
	#storelocator.clickit .st3{
		fill: white;
	}
</style>
<script type="text/javascript">
	var clicker = document.querySelector('#storelocator');
	clicker.addEventListener('click', function(){
	 this.classList.toggle('clickit');
	});
</script>
<g>
	<path class="st1" d="M143.8,35.9c-35.3,0-63.9,28.6-63.9,63.9c0,27.6,17.5,51.2,42.1,60.1l21.8,67.2l21.2-67
		c24.9-8.7,42.7-32.4,42.7-60.3C207.7,64.5,179.1,35.9,143.8,35.9z"/>
	<polyline class="st0" points="157.5,183.8 228.4,183.8 261.5,269.7 26.5,269.7 58.9,183.8 129.8,183.8 	"/>
	<polygon class="st3" points="120.9,56.4 165.3,56.4 185.8,78.6 100.4,78.6 	"/>
	<polygon class="st3" points="175.5,78.6 175.5,131.5 143.1,131.5 111.8,131.5 111.8,78.6 	"/>
	<polygon class="st2" points="42.6,227.1 50.2,206.8 137.2,206.8 143.8,227.1 150.2,206.8 170.9,206.8 179.3,183.8 200.2,183.8 
		194.2,206.8 237.3,206.8 244.9,226.8 170.4,226.8 156.9,269.7 132.1,269.7 143.1,241.8 103.7,241.8 90.3,269.7 65.4,269.7 
		86.8,227.1 	"/>
</g>
</svg>
